<svg xmlns="http://www.w3.org/2000/svg" viewBox="0 0 100 100"><path d="M71.50 87.24 L73.34 88.00 L74.64 87.77 L75.85 87.36 L77.01 86.84 L78.12 86.24 L79.20 85.58 L80.24 84.86 L81.25 84.10 L82.22 83.29 L83.16 82.44 L84.07 81.56 L84.94 80.64 L85.78 79.70 L86.59 78.72 L87.37 77.71 L88.10 76.68 L88.81 75.63 L89.48 74.55 L90.11 73.45 L90.71 72.33 L91.27 71.20 L91.80 70.05 L92.29 68.88 L92.74 67.70 L93.16 66.51 L93.54 65.31 L93.88 64.10 L94.18 62.88 L94.45 61.65 L94.68 60.42 L94.88 59.18 L95.03 57.94 L95.15 56.70 L95.23 55.45 L95.28 54.21 L95.29 52.97 L95.26 51.73 L95.19 50.49 L95.09 49.26 L94.96 48.04 L94.79 46.82 L94.58 45.61 L94.34 44.41 L94.07 43.22 L93.76 42.04 L93.42 40.87 L93.04 39.72 L92.64 38.58 L92.20 37.45 L91.73 36.34 L91.23 35.25 L90.70 34.17 L90.14 33.12 L89.56 32.08 L88.94 31.06 L88.30 30.06 L87.63 29.09 L86.94 28.13 L86.22 27.20 L85.48 26.30 L84.71 25.41 L83.92 24.55 L83.11 23.72 L82.28 22.91 L81.43 22.13 L80.56 21.38 L79.67 20.65 L78.76 19.95 L77.84 19.28 L76.90 18.64 L75.95 18.03 L74.98 17.44 L74.00 16.89 L73.01 16.37 L72.01 15.87 L70.99 15.41 L69.97 14.97 L68.94 14.57 L67.90 14.19 L66.86 13.85 L65.81 13.54 L64.75 13.26 L63.69 13.01 L62.63 12.79 L61.57 12.60 L60.50 12.45 L59.44 12.32 L58.38 12.22 L57.31 12.16 L56.25 12.12 L55.20 12.11 L54.15 12.14 L53.10 12.19 L52.06 12.27 L51.03 12.39 L50.00 12.53 L48.98 12.69 L47.97 12.89 L46.98 13.11 L45.99 13.37 L45.01 13.64 L44.05 13.95 L43.10 14.28 L42.16 14.63 L41.24 15.01 L40.33 15.41 L39.43 15.84 L38.56 16.29 L37.70 16.76 L36.85 17.26 L36.03 17.78 L35.22 18.31 L34.44 18.87 L33.67 19.45 L32.92 20.04 L32.19 20.66 L31.49 21.29 L30.80 21.94 L30.14 22.60 L29.50 23.28 L28.88 23.97 L28.28 24.68 L27.71 25.40 L27.16 26.14 L26.63 26.88 L26.13 27.64 L25.65 28.41 L25.19 29.18 L24.76 29.97 L24.35 30.76 L23.97 31.56 L23.61 32.37 L23.28 33.18 L22.97 34.00 L22.69 34.82 L22.43 35.65 L22.20 36.48 L21.99 37.31 L21.81 38.14 L21.65 38.97 L21.51 39.81 L21.40 40.64 L21.32 41.47 L21.26 42.30 L21.22 43.12 L21.21 43.95 L21.22 44.76 L21.25 45.57 L21.31 46.38 L21.39 47.18 L21.49 47.97 L21.61 48.76 L21.76 49.54 L21.93 50.31 L22.12 51.06 L22.33 51.81 L22.57 52.55 L22.82 53.28 L23.10 53.99 L23.41 54.69 L23.41 54.69 L23.29 53.96 L23.17 53.23 L23.07 52.50 L22.99 51.77 L22.92 51.03 L22.87 50.30 L22.85 49.56 L22.84 48.81 L22.85 48.07 L22.88 47.33 L22.94 46.59 L23.01 45.85 L23.10 45.11 L23.21 44.37 L23.34 43.63 L23.49 42.90 L23.66 42.17 L23.85 41.44 L24.06 40.72 L24.29 40.00 L24.54 39.29 L24.81 38.59 L25.10 37.89 L25.41 37.20 L25.74 36.52 L26.08 35.84 L26.45 35.18 L26.83 34.52 L27.23 33.87 L27.65 33.23 L28.09 32.61 L28.54 31.99 L29.01 31.39 L29.50 30.80 L30.00 30.22 L30.52 29.65 L31.06 29.10 L31.61 28.56 L32.18 28.04 L32.76 27.53 L33.36 27.04 L33.97 26.56 L34.59 26.10 L35.23 25.66 L35.88 25.23 L36.54 24.82 L37.21 24.42 L37.90 24.05 L38.59 23.69 L39.30 23.35 L40.02 23.03 L40.74 22.73 L41.48 22.44 L42.22 22.18 L42.97 21.94 L43.73 21.72 L44.49 21.51 L45.27 21.33 L46.04 21.17 L46.83 21.03 L47.61 20.91 L48.41 20.81 L49.20 20.73 L50.00 20.67 L50.80 20.64 L51.60 20.63 L52.41 20.63 L53.21 20.66 L54.02 20.71 L54.82 20.79 L55.63 20.88 L56.43 21.00 L57.23 21.14 L58.03 21.30 L58.82 21.48 L59.61 21.68 L60.40 21.91 L61.18 22.15 L61.96 22.42 L62.73 22.71 L63.49 23.02 L64.25 23.34 L65.00 23.70 L65.74 24.07 L66.47 24.46 L67.19 24.87 L67.90 25.30 L68.61 25.75 L69.30 26.22 L69.98 26.71 L70.65 27.22 L71.30 27.75 L71.95 28.29 L72.58 28.85 L73.19 29.44 L73.80 30.03 L74.38 30.65 L74.96 31.28 L75.51 31.93 L76.05 32.59 L76.58 33.27 L77.09 33.97 L77.58 34.67 L78.05 35.40 L78.50 36.14 L78.94 36.89 L79.36 37.65 L79.76 38.43 L80.14 39.22 L80.50 40.02 L80.84 40.83 L81.16 41.65 L81.46 42.48 L81.74 43.33 L82.00 44.18 L82.24 45.04 L82.45 45.91 L82.65 46.78 L82.82 47.67 L82.97 48.56 L83.10 49.46 L83.20 50.36 L83.29 51.27 L83.35 52.19 L83.38 53.10 L83.40 54.03 L83.39 54.95 L83.36 55.88 L83.31 56.81 L83.23 57.75 L83.13 58.68 L83.00 59.62 L82.86 60.56 L82.69 61.49 L82.49 62.43 L82.28 63.37 L82.04 64.31 L81.77 65.24 L81.49 66.17 L81.18 67.11 L80.85 68.04 L80.50 68.96 L80.12 69.89 L79.72 70.81 L79.30 71.73 L78.86 72.65 L78.40 73.56 L77.91 74.48 L77.41 75.39 L76.88 76.30 L76.34 77.21 L75.77 78.13 L75.19 79.05 L74.60 79.97 L73.99 80.91 L73.37 81.87 L72.75 82.87 L72.13 83.92 L71.57 85.11 L71.50 87.24Z"/></svg>